<?xml version="1.0" standalone="no"?>
<!DOCTYPE svg PUBLIC "-//W3C//DTD SVG 1.1//EN" "http://www.w3.org/Graphics/SVG/1.1/DTD/svg11.dtd" >
<svg xmlns="http://www.w3.org/2000/svg">
<metadata>
Created by FontForge 20120731 at Fri May 20 21:32:22 2016
 By admin
</metadata>
<defs>
<font id="iconfont" horiz-adv-x="1024" >
  <font-face 
    font-family="iconfont"
    font-weight="500"
    font-stretch="normal"
    units-per-em="1024"
    panose-1="2 0 6 3 0 0 0 0 0 0"
    ascent="896"
    descent="-128"
    x-height="792"
    bbox="0 -224 1258.79 896"
    underline-thickness="50"
    underline-position="-100"
    unicode-range="U+0078-E749"
  />
<missing-glyph horiz-adv-x="374" 
d="M34 0v682h272v-682h-272zM68 34h204v614h-204v-614z" />
    <glyph glyph-name=".notdef" horiz-adv-x="374" 
d="M34 0v682h272v-682h-272zM68 34h204v614h-204v-614z" />
    <glyph glyph-name=".null" horiz-adv-x="0" 
 />
    <glyph glyph-name="nonmarkingreturn" horiz-adv-x="341" 
 />
    <glyph glyph-name="x" unicode="x" horiz-adv-x="1001" 
d="M281 543q-27 -1 -53 -1h-83q-18 0 -36.5 -6t-32.5 -18.5t-23 -32t-9 -45.5v-76h912v41q0 16 -0.5 30t-0.5 18q0 13 -5 29t-17 29.5t-31.5 22.5t-49.5 9h-133v-97h-438v97zM955 310v-52q0 -23 0.5 -52t0.5 -58t-10.5 -47.5t-26 -30t-33 -16t-31.5 -4.5q-14 -1 -29.5 -0.5
t-29.5 0.5h-32l-45 128h-439l-44 -128h-29h-34q-20 0 -45 1q-25 0 -41 9.5t-25.5 23t-13.5 29.5t-4 30v167h911zM163 247q-12 0 -21 -8.5t-9 -21.5t9 -21.5t21 -8.5q13 0 22 8.5t9 21.5t-9 21.5t-22 8.5zM316 123q-8 -26 -14 -48q-5 -19 -10.5 -37t-7.5 -25t-3 -15t1 -14.5
t9.5 -10.5t21.5 -4h37h67h81h80h64h36q23 0 34 12t2 38q-5 13 -9.5 30.5t-9.5 34.5q-5 19 -11 39h-368zM336 498v228q0 11 2.5 23t10 21.5t20.5 15.5t34 6h188q31 0 51.5 -14.5t20.5 -52.5v-227h-327z" />
    <glyph glyph-name="uniE600" unicode="&#xe600;" 
d="M621 -46zM526 -212q-14 0 -21 11l-308 454q-55 88 -55 191q0 100 51 184.5t139.5 134t193 49.5t193 -49.5t140 -134t51.5 -184.5q0 -103 -56 -190l-212 -315q-6 -8 -16.5 -10t-19 4t-11 16t3.5 19l212 314q47 74 47 162q0 86 -44.5 159t-121 115.5t-167 42.5t-167 -42.5
t-121 -115.5t-44.5 -159q0 -88 47 -163l307 -453q6 -9 4 -19.5t-11 -16.5q-6 -4 -14 -4zM525.5 265q-74.5 0 -127 53t-52.5 127.5t52.5 127t127 52.5t127.5 -52.5t53 -127t-53 -127.5t-127.5 -53zM525.5 572q-52.5 0 -90 -37t-37.5 -89.5t37.5 -90t90 -37.5t90 37.5t37.5 90
t-37.5 89.5t-90 37z" />
    <glyph glyph-name="uniE601" unicode="&#xe601;" 
d="M955 373q0 90 -35 171t-94.5 140t-141.5 93.5t-172 34.5t-172 -34.5t-141.5 -93.5t-94.5 -140t-35 -171q0 -88 33.5 -167t93.5 -140h-1l2 -2q2 -1 3 -2l251 -248q25 -25 61 -25t61 25l251 248l1 1t2 1l1 2q60 61 93.5 140t33.5 167zM512 227q-61 0 -104.5 43t-43.5 103.5
t43.5 103.5t104.5 43t104.5 -43t43.5 -103.5t-43.5 -103.5t-104.5 -43z" />
    <glyph glyph-name="uniE602" unicode="&#xe602;" 
d="M511.5 797q-100.5 0 -192.5 -39t-158.5 -105.5t-105.5 -158.5t-39 -192.5t39 -192.5t105.5 -158t158.5 -105.5t192.5 -39.5t192.5 39.5t158 105.5t105.5 158t39.5 192.5t-39.5 192.5t-105.5 158.5t-158 105.5t-192.5 39zM560 284l-249 -173q-8 -5 -17 -5q-15 0 -24 12
q-7 10 -4.5 22t12.5 19l223 156v387q0 12 9 21t21 9t20.5 -9t8.5 -21v-418z" />
    <glyph glyph-name="uniE606" unicode="&#xe606;" 
d="M511 833q-91 0 -174 -35.5t-143 -95.5t-95.5 -142.5t-35.5 -173.5t35.5 -174t95.5 -143t143 -95t174 -35t173.5 35t142.5 95t95.5 143t35.5 174t-35.5 173.5t-95.5 142.5t-142.5 95.5t-173.5 35.5zM628 48l-229 -2l-40 118l58 86h179l67 -85zM404 724l100 -71l-1 -108
l-150 -107l-95 36l-39 113zM801 595l-38 -122q-2 1 -4 0l-99 -32q-2 -1 -3 -3l-140 107l1 108l96 74zM255 462l100 -38l1 1l54 -164l-60 -88l-125 -3l-72 217zM799 174l-127 -1l-65 84l53 172q1 -1 2 -1t2 1l99 32q2 1 3 2l102 -70zM843 602l-30 -1l-196 139l-10 31
q73 -19 134.5 -63t101.5 -106zM408 769l-11 -34l-187 -139h-35q39 64 99.5 109t133.5 64zM114 386v21l25 -18l77 -230l-9 -28q-93 111 -93 255zM368 15l25 18l242 3l24 -18q-71 -29 -148 -29q-74 0 -143 26zM819 136l-10 30l73 229l25 18v-27q0 -141 -88 -250z" />
    <glyph glyph-name="uniE607" unicode="&#xe607;" 
d="M500.5 612q26.5 11 37.5 38t-0.5 53.5t-38 37t-53 -0.5t-37.5 -38t0.5 -53.5t38 -37t53 0.5zM537 -32q5 2 28 14l29 14q-3 6 -22 48.5t-36 81.5l-18 39l170 61q5 2 13 6.5t23 20t22 34.5q8 19 8 41q0 33 -16 70l-19 45q-15 35 -22.5 51.5t-19.5 39t-24 35.5t-27 21v0
q-3 2 -7.5 4t-17.5 4.5t-28 1.5t-38.5 -8t-48.5 -21q-38 -22 -92.5 -55t-89.5 -56l-35 -22l19 -45l215 74l71 -149l-102 -58h-1q-5 -2 -12.5 -6.5t-22.5 -19.5t-20 -32q-2 -10 -2 -19q0 -28 21 -59q58 -86 102 -156zM711 93l-5 38l85 13q16 2 26 15.5t7.5 30.5t-16 26.5
t-30.5 7.5l-78 -12q-2 -1 -5 -2q-137 -49 -153 -55q1 -2 3.5 -8.5t7.5 -17.5t9 -20l91 14l5 -37l-80 -12q39 -86 39 -87l-87 -42l-4 7q-15 26 -67 105l-151 -22l-98 350l57 1l-70 193l-106 -1l159 -551l-162 -24v-149l848 1v270z" />
    <glyph glyph-name="uniE60C" unicode="&#xe60c;" 
d="M876 259q-33 -32 -74 -53q-14 -1 -23 9l-31 31l-291 290q-28 29 -33 33q-8 9 4 40q19 31 43 55q84 84 202.5 84t202 -84t83.5 -202.5t-83 -202.5zM835 624q-67 67 -161.5 67t-161.5 -67q-15 -15 -28 -34l318 -318q18 13 33 28q67 67 67 162t-67 162zM402 372
q-24 72 -8 147l51 -52q-2 -98 67 -167t167 -66l52 -52q-75 -15 -147 8l-1 -1l-314 -294q-41 -37 -86.5 -41.5t-85.5 31.5q-37 39 -33 85t43 87l294 314zM138 -74q22 -20 48.5 -16.5t50.5 26.5l291 280q-32 19 -57 43.5t-44 56.5l-279 -290q-24 -25 -27.5 -52t17.5 -48z" />
    <glyph glyph-name="uniE60F" unicode="&#xe60f;" 
d="M784 276v22h111v177q-2 77 -57.5 131t-133.5 54t-133.5 -54t-57.5 -131v-15h-3h2v9q0 79 -56 135t-135.5 56t-135.5 -56t-56 -135q0 -55 28.5 -100.5t74.5 -69.5v-24q-100 -15 -163.5 -57.5t-63.5 -95.5q0 -43 43 -80t116.5 -58.5t161.5 -21.5v0q31 -25 79.5 -39.5
t104.5 -14.5q57 0 105.5 15t79.5 41q-1 -2 -2 -2q5 -1 9 -1q88 0 161.5 21.5t116.5 58.5t43 80q0 55 -67.5 98t-171.5 57zM286 35v-8q-94 5 -157 32t-63 63q0 34 56 60t142 34h5h4v1q10 3 17 11.5t7 20.5h-1h1v72h-1q0 12 -8 21t-20 11q-33 15 -54 46.5t-21 69.5
q0 52 37.5 89t90 37t89.5 -37t37 -89q0 -12 -2 -23q-31 -14 -54 -39.5t-33 -58.5q-1 -2 -1 -3v-1q-1 -2 -1 -3v-1q-1 -2 -1 -3q-1 -2 -1 -4v-1q0 -1 -1 -2v-2v-3h-1v-4v-1v-2l-1 -1v-4v-4v-1v-3v-1v-3v-6v-1v-1v-3v-2q0 -2 1 -4v-2v-3v-2q1 -2 1 -4v-1q1 -3 1 -5v-1
q2 -5 3 -10v-1l2 -4v-1q1 -2 2 -5t2 -5q5 -13 12 -24q13 -20 30 -35q4 -3 7 -6h1q1 -2 3 -3l4 -2v-18q-2 0 -5 -1h-1q-1 -1 -3 -1q-1 0 -1 -1q-2 0 -4 -1v0q-5 -1 -9 -2v-1q-2 0 -4 -1h-1q-4 -2 -8 -3q-45 -18 -71.5 -45.5t-26.5 -60.5zM505 -44q-65 0 -110.5 22.5
t-45.5 53.5q0 29 37.5 50.5t94.5 25.5q4 8 4 16q0 2 -1 4v56v2q0 11 -6.5 20t-16.5 12q-22 12 -35 34.5t-13 48.5q0 40 28.5 68t68.5 28t68 -28t28 -68q0 -26 -12.5 -48t-33.5 -35q-23 -7 -23 -31q0 -2 1 -5v-61q0 -7 3 -14q52 -6 85.5 -27t33.5 -48q0 -31 -45.5 -53.5
t-109.5 -22.5zM733 26q1 4 1 9q0 31 -24 57.5t-65 44.5l-10 4l-10 4h-1q-2 1 -5 2h-1q-2 1 -4 1h-1q-2 1 -5 2h-1q-3 1 -5 2v19q2 1 4 3q1 0 1 0.5t1 0.5l3 3l1 1q1 1 3 2l1 1l4 4q14 13 24 29q1 2 3 4v1l2 4l1 1l2 4v1l2 4h1l4 10v1q1 2 1 4l1 2q0 2 1 3q0 1 1 2q0 2 1 4v1
q0 2 1 4v1q1 3 1 6v1q1 2 1 4v2q1 2 1 3v2v4q0 1 1 2v3v1v1v6v4v1v1v2v1v1l-1 2v2v1v1v3v1q-1 1 -1 3v1v3h-1v1v3v1q-1 1 -1 3v1q-1 1 -1 3l-2 8q-1 2 -1 4q-2 3 -3 7q-1 2 -2 3q-23 57 -79 83v29q3 51 39.5 86t87.5 35t88 -35t39 -86v-111h-112v-15v-94v-6q0 -14 9.5 -23.5
t23.5 -9.5h4q87 -7 144 -33.5t57 -60.5q0 -36 -64.5 -63.5t-159.5 -31.5z" />
    <glyph glyph-name="uniE611" unicode="&#xe611;" 
d="M656 398q0 46 32.5 78.5t78.5 32.5t79 -32.5t33 -78.5t-33 -78.5t-79 -32.5t-78.5 32.5t-32.5 78.5zM712 176q-37 0 -83 -12t-85.5 -25.5t-99.5 -25t-121 -11.5q-52 0 -98 8t-72.5 17.5t-48.5 22.5t-28 18t-9 8q3 -6 10 -16t31.5 -36t54 -45.5t80 -35.5t106.5 -16
q59 0 120.5 11.5t104 25.5t92.5 25.5t90 11.5q42 0 78 -7.5t57.5 -18.5t37 -21.5t21.5 -18.5l6 -8q-3 6 -9 16t-28.5 35.5t-48.5 45.5t-68.5 36t-89.5 16zM228 365l192 96l7 -12l40 -110q-1 0 -54.5 -31.5t-123 -72.5t-81.5 -48q44 -11 111 -11q64 0 122.5 11.5t117.5 30.5
t86 24l-178 286l-1 -1v1q-8 13 -22 17t-27 -3l-222 -111q-14 -7 -19 -21.5t2 -28t21.5 -18.5t28.5 2z" />
    <glyph glyph-name="uniE623" unicode="&#xe623;" 
d="M506 -5q-8 0 -18 1t-31 8.5t-38.5 20t-33.5 39t-21 62.5v1l-8 80l-3 10q-53 145 -128 345q-23 61 -1 95q18 28 63 28q183 2 454 2q42 0 58 -25q22 -33 -6 -107l-1 -3q-28 -73 -58 -153q-33 -90 -69 -183l-3 -10q-3 -74 -6 -89v-5q-11 -117 -149 -117h-1zM393 130
q5 -30 18.5 -52t27.5 -32t31 -15t24 -5.5t12 -0.5q32 0 55.5 7t35 16t19 24t9 23t2.5 20q0 5 1 8q2 12 4 83l-246 1zM593 236h49q34 90 65 174q31 85 57 153l2 3q22 59 9 79q-8 12 -34 12q-270 0 -454 -2q-29 0 -39 -15q-13 -20 4 -67q48 -129 124 -336h55l-44 84l26 14
l52 -98l36 -1v95h29v-95h29l53 99l26 -14z" />
    <glyph glyph-name="uniE624" unicode="&#xe624;" 
d="M452 -167q-8 0 -13.5 5.5t-5.5 13.5v108q0 8 5.5 13.5t13.5 5.5h117q8 0 13.5 -5.5t5.5 -13.5v-108q0 -8 -5.5 -13.5t-13.5 -5.5t-13.5 5.5t-5.5 13.5v89h-79v-89q0 -8 -5.5 -13.5t-13.5 -5.5zM763 -148zM884 -148zM442 431q-8 0 -14 6t-6 14v109q0 8 6 13.5t14 5.5
t13.5 -5.5t5.5 -13.5v-109q0 -8 -5.5 -14t-13.5 -6zM334 432q-8 0 -13.5 5.5t-5.5 13.5v113q0 8 5.5 14t13.5 6t13.5 -6t5.5 -14v-113q0 -7 -5.5 -13t-13.5 -6zM373 179q-8 0 -13.5 5.5t-5.5 13.5v117q0 8 5.5 13.5t13.5 5.5t14 -5.5t6 -13.5v-117q0 -8 -6 -13.5t-14 -5.5z
M270 179q-8 0 -14 5.5t-6 13.5v121q0 8 6 13.5t13.5 5.5t13.5 -5.5t6 -13.5v-121q0 -8 -6 -13.5t-13 -5.5zM270 -167q-8 0 -14 5.5t-6 13.5v219q0 8 6 14t13.5 6t13.5 -6t6 -14v-219q0 -8 -6 -13.5t-13 -5.5zM992 -167h-960q-8 0 -13.5 5.5t-5.5 13.5t5.5 13.5t13.5 5.5h960
q8 0 13.5 -5.5t5.5 -13.5t-5.5 -13.5t-13.5 -5.5zM148 -167q-8 0 -13.5 5.5t-5.5 13.5v249q0 8 5.5 13.5t13.5 5.5t13.5 -5.5t5.5 -13.5v-249q0 -8 -5.5 -13.5t-13.5 -5.5zM581 431q-8 0 -14 6t-6 14v109q0 8 6 13.5t14 5.5t13.5 -5.5t5.5 -13.5v-109q0 -8 -5.5 -14
t-13.5 -6zM688 432q-8 0 -13.5 5.5t-5.5 13.5v113q0 8 5.5 14t13.5 6t13.5 -6t5.5 -14v-113q0 -8 -5.5 -13.5t-13.5 -5.5zM649 179q-8 0 -13.5 5.5t-5.5 13.5v117q0 8 5.5 13.5t13.5 5.5t13.5 -5.5t5.5 -13.5v-117q0 -8 -5.5 -13.5t-13.5 -5.5zM753 179q-8 0 -13.5 5.5
t-5.5 13.5v121q0 8 5.5 13.5t13.5 5.5t13.5 -5.5t5.5 -13.5v-121q0 -8 -5.5 -13.5t-13.5 -5.5zM753 -167q-8 0 -13.5 5.5t-5.5 13.5v219q0 8 5.5 14t13.5 6t13.5 -6t5.5 -14v-219q0 -8 -5.5 -13.5t-13.5 -5.5zM874 -167q-8 0 -13.5 5.5t-5.5 13.5v249q0 8 5.5 13.5t13.5 5.5
t13.5 -5.5t5.5 -13.5v-249q0 -8 -5.5 -13.5t-13.5 -5.5zM226 612q-29 0 -56 4q-7 2 -12 8.5t-3.5 14t8 12t14.5 3.5q26 -6 58.5 -3.5t54 5.5t45.5 10t32.5 10.5t16.5 6.5q37 16 64.5 40t35.5 36t9 16q5 10 18 10t18 -10q1 -2 3 -6.5t11 -15.5t20.5 -22t31.5 -24.5t43 -23.5
q5 -2 13.5 -5.5t32 -10.5t46 -10.5t55.5 -6t60 3.5q8 1 14.5 -3.5t8 -12.5t-3.5 -14t-12 -8q-30 -7 -65.5 -4.5t-60 6t-50.5 11.5t-36 11.5t-17 7.5q-72 31 -112 84q-40 -53 -112 -84q-83 -36 -173 -36zM566 545h-27h-28h-28q-56 0 -86 0.5t-72 6t-75 16.5q-50 17 -88 51
q-6 5 -6.5 13t4.5 14t13 6.5t14 -4.5q38 -30 76 -43q30 -10 69 -15t68.5 -6t81.5 0h29h28q55 -1 83 0t67.5 6t69.5 15q41 14 76 43q6 5 14 4.5t13 -6.5t4.5 -14t-6.5 -13q-38 -34 -89 -51q-68 -23 -205 -23zM872 372q-101 0 -196 58h-328q-14 -9 -32 -18t-54.5 -21
t-72 -16.5t-81 2t-85.5 28.5q-7 4 -9.5 11.5t1.5 14.5t11.5 9t14.5 -2q38 -20 82 -25t78 2t66.5 19.5t46.5 20t18 10.5q5 3 11 3h339q5 0 10 -3q6 -4 18.5 -11t46 -19.5t67 -19t77.5 -2t82 24.5q7 4 14.5 2t11.5 -9t1.5 -15t-9.5 -11q-58 -33 -129 -33zM574 300h-30h-32h-32
q-84 0 -128 1t-103.5 8t-103.5 22q-32 11 -64.5 31t-44 29.5t-17.5 16.5q-6 5 -6 13t5.5 14t13.5 6t13 -6q5 -4 15.5 -13t39.5 -27t58 -28q40 -13 98.5 -20t98.5 -8t125 -1h32h32q84 0 125 1t99 8t98 20q29 10 57.5 27.5t40.5 27.5t15 13q5 6 13 6t13.5 -6t5.5 -14t-6 -13
q-6 -7 -17.5 -16.5t-44 -29.5t-64.5 -31q-58 -20 -128 -25.5t-177 -5.5zM887 136q-71 0 -134 40h-484q-15 -9 -33.5 -17t-51.5 -17t-72.5 -4.5t-76.5 24.5q-7 3 -9.5 11t1.5 15t11.5 9t14.5 -2q28 -15 59 -18t52.5 0t46 13t29.5 13t12 7q5 4 11 4h496q6 0 11 -3
q5 -4 13 -8.5t30 -13.5t44.5 -12.5t53 0t58.5 18.5q7 4 14.5 2t11.5 -9t1.5 -15t-9.5 -11q-47 -26 -100 -26zM571 52h-29h-31h-31q-91 0 -134 1t-101 7.5t-97 20.5q-31 10 -61.5 32.5t-41 34t-16.5 19.5q-5 6 -4 14t7 13t14 4t13 -7q4 -6 13.5 -16t36 -29.5t51.5 -28.5
q37 -13 92 -19t98 -6.5t130 -0.5h62q87 0 130 0.5t98 6.5t91 19q53 18 102 74q5 6 13 6.5t14 -4t7 -12.5t-4 -15q-6 -7 -17 -18.5t-41.5 -34t-60.5 -32.5q-53 -19 -121.5 -24t-181.5 -5z" />
    <glyph glyph-name="uniE633" unicode="&#xe633;" 
d="M561.5 360q-50.5 0 -50.5 -64.5t50.5 -64.5t50.5 64.5t-50.5 64.5zM561.5 360q-50.5 0 -50.5 -64.5t50.5 -64.5t50.5 64.5t-50.5 64.5zM937 554h-851q-9 0 -15 -6t-6 -15v-403q0 -8 6 -14t15 -6h851q8 0 14 6t6 14v403q0 9 -6 15t-14 6zM415 190h-56v128q0 11 -1 18.5
t-10 15.5t-25 8q-19 0 -31 -13t-12 -36v-121h-56v285h56v-101q6 13 23 22.5t38 9.5q33 0 53.5 -18t20.5 -52v-146zM561.5 185q-45.5 0 -76.5 28.5t-31 82.5t31 82t76.5 28t76.5 -28t31 -82t-31 -82.5t-76.5 -28.5zM805 361h-35v-114q0 -10 4 -13.5t19 -3.5q4 0 12 1v-42
q-17 -1 -26 -1h-7q-34 0 -45.5 11t-11.5 34v128h-29v40h29v57h55v-57h35v-40zM561.5 360q-50.5 0 -50.5 -64.5t50.5 -64.5t50.5 64.5t-50.5 64.5zM561.5 360q-50.5 0 -50.5 -64.5t50.5 -64.5t50.5 64.5t-50.5 64.5zM561.5 360q-50.5 0 -50.5 -64.5t50.5 -64.5t50.5 64.5
t-50.5 64.5z" />
    <glyph glyph-name="uniE636" unicode="&#xe636;" horiz-adv-x="1026" 
d="M1026 363h-168v-227v-56h93v-76h56v-76h-970v76h56v76h112v283h-205l280 171h-205l429 265v38h37v-38l429 -265h-188zM261 363v-227h93v227h-93zM504 363h-94v-227h94v227zM653 363h-94v-227h94v227zM709 136h93v227h-93v-227zM709 136z" />
    <glyph glyph-name="uniE641" unicode="&#xe641;" 
d="M689 -153h-215q23 26 23 60t-23 60q37 0 63 26.5t26 63.5q0 48 -39 74q41 27 41 76q0 36 -18.5 60.5t-49.5 28.5q24 26 24 61q0 30 -19 55h2q-36 76 -46 157.5t-3 111.5q7 34 34.5 54t61.5 16.5t57 -30.5t23 -62q0 -1 -0.5 -3t-0.5 -3q0 -9 0.5 -25t7 -51.5t17.5 -66
t35 -62t58 -46.5q16 -6 30 -14q43 -24 68 -67t25 -94v-196q0 -76 -53 -130t-129 -54zM491 357q0 -24 -17.5 -42t-41.5 -18h-151q-24 0 -41.5 18t-17.5 42.5t17 42t42 17.5h151q24 0 41.5 -17.5t17.5 -42.5zM432 267h44h8q24 0 37.5 -17t13.5 -43q0 -25 -17.5 -42.5
t-41.5 -17.5h-2h-261q-24 0 -41.5 17.5t-17.5 42.5t17.5 42.5t41.5 17.5h68h151zM212 117h1h261q25 0 42 -17.5t17 -42.5t-17 -42.5t-42 -17.5h-66h-95h-101q-25 0 -42.5 17.5t-17.5 42.5t17.5 42.5t42.5 17.5zM313 -33h95q25 0 42 -17.5t17 -42.5t-17 -42.5t-42 -17.5h-32
h-63q-25 0 -42.5 17.5t-17.5 42.5t17.5 42.5t42.5 17.5z" />
    <glyph glyph-name="uniE652" unicode="&#xe652;" 
d="M1011 299q0 -101 -39.5 -193t-106 -159t-158.5 -106t-193.5 -39t-193.5 39t-158.5 106t-106 159t-39.5 193t39.5 193.5t106 159t158.5 106t193.5 39.5t193.5 -39.5t158.5 -106t106 -159t39.5 -193.5zM513.5 726q-115.5 0 -214 -57.5t-155.5 -155.5t-57 -214t57 -214
t155.5 -155t214 -57t214 57t155.5 155t57 214t-57 214t-155.5 155.5t-214 57.5zM451 237v311h63v-249h248v-62h-311z" />
    <glyph glyph-name="uniE66B" unicode="&#xe66b;" 
d="M512 800q-172 0 -294 -122t-122 -294t122 -294t294 -122t294 122t122 294t-122 294t-294 122zM893 384q-67 5 -129 31q-54 23 -99 59q63 90 106 190q57 -54 89.5 -126.5t32.5 -153.5zM745 685l-1 -1v-3q-42 -98 -103 -186l-9 9q-58 58 -89 133q-26 61 -32 128h1
q130 0 233 -80zM479 764q7 -86 44.5 -162t98.5 -133q-28 -38 -61 -74q-145 153 -337 239q48 55 114 89.5t141 40.5zM561 348q109 -122 175 -273q-80 -57 -177 -69q-6 142 -94 254q51 41 96 88zM524 356q-38 -38 -79 -72q-60 66 -140 104.5t-171 42.5q12 97 69 177
q179 -78 317 -216l20 -20q-8 -9 -16 -16zM131 400q75 -4 143 -33q75 -31 132 -89q7 -6 13 -14q-94 -72 -203 -120q-85 105 -85 240v16zM238 119q108 49 202 121q34 -43 55 -94q29 -68 33 -143h-16q-79 0 -150 30.5t-124 85.5zM762 96q-68 152 -179 276q34 37 63 76
q108 -86 246 -96q-6 -76 -40.5 -142t-89.5 -114z" />
    <glyph glyph-name="uniE689" unicode="&#xe689;" 
d="M512 716q-172 0 -294 -122t-122 -294t122 -294t294 -122t294 122t122 294t-122 294t-294 122zM762 12q-13 -11 -26 -21q-66 151 -175 273q-45 -47 -96 -88q88 -112 94 -254q-15 -2 -31 -3q-4 75 -33 143q-21 51 -55 94q-94 -72 -202 -121q-12 12 -22 25q109 48 203 120
q-6 8 -13 14q-57 58 -132 89q-68 29 -143 33q1 16 3 31q91 -4 171 -42.5t140 -104.5q41 34 79 72q8 7 16 16q-10 11 -20 20q-138 138 -317 216q10 13 21 26q192 -86 337 -239q33 36 61 74q-61 57 -98.5 133t-44.5 162q16 1 32 1q6 -67 32 -128q31 -75 89 -133l9 -9
q61 88 103 186v3l1 1q13 -10 26 -21q-43 -100 -106 -190q45 -36 99 -59q62 -26 129 -31q0 -16 -1 -32q-138 10 -246 96q-29 -39 -63 -76q111 -124 179 -276z" />
    <glyph glyph-name="uniE6DA" unicode="&#xe6da;" 
d="M327 352l14 24v28l32 21h-81l28 -21v-25l-11 -18q-47 25 -98 25q-87 0 -149 -61t-62 -147t62 -147t149.5 -61t149 61t61.5 147q0 54 -25.5 99.5t-69.5 74.5zM341 279l-104 -77l66 111q24 -17 38 -34zM215 341q37 0 71 -17l-71 -116v133zM208 341v-136q-9 -1 -16 -7l4 4
l-100 91q46 46 112 48zM92 287l99 -90q-6 -7 -7 -15h-135q1 60 43 105zM50 175h134q0 -5 3 -10l-105 -80q-31 40 -32 90zM215 19v131h-4h-3v-131q-74 2 -122 60l105 80q9 -9 20 -9q12 0 20 9l99 -91q-48 -49 -115 -49zM376 175q-2 -58 -42 -102l-99 92q4 7 4 13.5t-4 13.5
l111 81q30 -41 30 -91h-137v-4v-3h137zM670.5 671q31.5 0 53.5 22t22 53t-22 52.5t-53.5 21.5t-53.5 -21.5t-22 -52.5t22 -53t53.5 -22zM809 386q-48 0 -94 -22q-3 6 -7 13.5t-6 10.5l-2 3q1 4 15.5 14.5t28 25t13.5 27.5q0 9 -4 20q23 -4 39 2q15 6 15 23.5t-26 21.5
q-21 3 -42.5 10.5t-39.5 19t-34 23t-30.5 25.5t-23 23t-17.5 20t-10 11q-11 11 -30 1.5t-16 -22.5q9 -29 66 -78t113 -70q0 -4 6.5 -10t8.5 -11t-4 -18q-14 -23 -31 -28h-190l3 -21h152l-162 -225h-71v-21h85l165 236l3 -4q2 -4 6.5 -12.5t10.5 -18.5q-46 -28 -73.5 -75
t-27.5 -102q0 -86 62 -147t149.5 -61t149 61t61.5 147t-61.5 147t-149.5 61zM813 341q78 -1 127 -63l-111 -81q-7 7 -16 8v136zM806 341v-136v-1h-2q-4 9 -28 52t-38 67q33 17 68 18zM721 314q15 -27 50 -91l-76 70q11 11 26 21zM690 287l92 -83l2 -4l2 -4q1 -2 2 -3
q-5 -7 -6 -11h-134q0 60 42 105zM648 175h134q1 -6 3 -10l-105 -80q-30 40 -32 90zM813 19v131h-4h-3v-131q-74 2 -121 60l105 80q8 -9 19.5 -9t19.5 9l99 -91q-47 -49 -115 -49zM933 73l-100 92q4 7 4 13.5t-4 13.5l111 81q30 -41 30 -91h-137v-4v-3h137q-2 -58 -41 -102z
M433 209q9 -20 25.5 -20.5t27.5 13.5q10 13 15 61.5t-3.5 112t-33.5 101.5q-5 7 19.5 26.5t54 39t32.5 24.5q3 4 -8.5 18t-22.5 31.5t-8 28.5q5 17 18.5 22.5t23.5 2.5q24 -6 57 -51q12 24 -14 50.5t-63 22.5q-72 -8 -127 -60t-67 -100q-6 -22 2 -42t21.5 -33t27 -33
t16.5 -39q6 -38 6.5 -81.5t-1 -62t1.5 -32.5z" />
    <glyph glyph-name="uniE700" unicode="&#xe700;" horiz-adv-x="1280" 
d="M571 309.5q0 -26.5 19 -45.5t45 -19t44.5 19t18.5 45.5t-18.5 45t-44.5 18.5t-45 -18.5t-19 -45zM537 119l-5 -318q1 -3 3 -7t10.5 -11t19.5 -7t23 4.5t19 8.5l7 4v163h52l-10 -158q1 -2 2 -6t8 -10t18 -6t23.5 6t19.5 12l6 6v330q27 11 76.5 55t53.5 58
q-8 -34 -17 -77.5t-14 -69.5l-4 -27q0 -4 2 -9.5t11.5 -16t23.5 -11.5l43 -3v-177q0 -28 21 -52t48 -24h74q27 0 50.5 25.5t23.5 53.5v177h37q17 0 26 9t10 19l1 9l-38 154q1 -2 3 -11q10 -30 42 -47q36 -19 48 9q15 32 -17 114q-12 29 -27 72.5t-25 68t-23 42.5
q-20 30 -58.5 51.5t-89.5 21.5q-53 0 -93 -21.5t-56 -51.5t-28 -80.5t-22 -66.5q-2 -4 -11 -21.5t-17 -30.5t-23.5 -31t-32 -30t-42 -19.5t-54.5 -6.5q-101 4 -124 51q-22 45 -40.5 104t-25.5 94q-4 16 -11.5 33t-20.5 35.5t-34.5 30t-48.5 11.5h-152q-52 0 -83 -37.5
t-31 -72.5q0 -18 -21.5 -112.5t-21.5 -112.5q0 -16 29.5 -31t51.5 -15q8 0 23.5 85t21.5 85l4 -476q0 -29 19 -55t46 -26h76q28 0 46.5 22.5t18.5 51.5v493q3 0 15 -27t28 -62.5t27 -50.5q9 -15 21.5 -27.5t23 -20.5t22.5 -15t19.5 -10.5t15 -6.5t8.5 -4zM1122 693
q0 44 -32.5 75.5t-77.5 31.5q-46 0 -78 -31t-32 -75.5t32 -75.5t78 -31q45 0 77.5 31t32.5 75zM374 693q0 44 -33 75.5t-80 31.5t-79.5 -31t-32.5 -75.5t32.5 -75.5t79.5 -31t80 31t33 75z" />
    <glyph glyph-name="uniE749" unicode="&#xe749;" 
d="M1023 577q0 127 -90 217t-217 90q-121 0 -209 -84l432 -433q84 89 84 210zM464 751q-54 -79 -54 -174q0 -41 11 -83l212 -212q42 -12 83 -12q95 0 174 54zM83 121q-8 -7 -14 -15q-18 -23 -25 -51q-3 -14 -3 -28q0 -28 11 -52l2 -4v-5l1 -1l-55 -55l37 -37l53 53l2 -1
q33 -25 75 -25q20 0 40 6q19 7 36 20v0q7 5 12 10l337 295l-209 209zM944 273q0 5 1 13h-15q1 -8 1 -13q0 -42 -20.5 -66t-51.5 -24h-6v-14q3 1 6 1q31 0 51.5 -24t20.5 -66h13q0 42 20.5 66t51.5 24q3 0 6 -1v14h-6q-31 0 -51.5 24t-20.5 66zM275 805q0 -1 1 -2
q6 -5 8.5 -15.5t2.5 -18.5l1 -8h9q0 29 14 44t35 15q1 0 1.5 2t0 4.5t-1.5 2.5q-21 0 -35 14.5t-14 43.5v9h-10q1 -7 1 -9q0 -29 -14 -43.5t-36 -14.5q-1 0 -1 -3v-4l1 -2q18 2 37 -15zM214 506h13q0 89 82 91v12q-82 4 -82 90v13h-14q1 -8 1 -13q0 -43 -21.5 -66.5
t-56.5 -23.5v-14q49 0 63.5 -20.5t14.5 -68.5z" />
  </font>
</defs>
</svg>
